<svg xmlns="http://www.w3.org/2000/svg" viewBox="0 0 560 160" role="img" aria-labelledby="title desc">
  <title id="title">Tonmoy Eats Main Logo</title>
  <desc id="desc">Horizontal Tonmoy Eats logo with premium red icon, black wordmark, and orange delivery motion accent.</desc>
  <defs>
    <linearGradient id="markBg" x1="18" y1="16" x2="128" y2="134" gradientUnits="userSpaceOnUse">
      <stop offset="0" stop-color="#FF7043"/>
      <stop offset="0.48" stop-color="#E53935"/>
      <stop offset="1" stop-color="#B71C1C"/>
    </linearGradient>
  </defs>
  <rect x="22" y="24" width="112" height="112" rx="28" fill="url(#markBg)"/>
  <path d="M44 98h68" fill="none" stroke="#FFC107" stroke-width="7" stroke-linecap="round"/>
  <path d="M50 106c8 11 18 16 28 16s20-5 28-16H50Z" fill="#121212"/>
  <path d="M55 92c4-16 15-25 23-25s19 9 23 25" fill="none" stroke="#FAFAFA" stroke-width="9" stroke-linecap="round"/>
  <path d="M53 48h50v15H86v40H70V63H53V48Z" fill="#FAFAFA"/>
  <path d="M104 55h17M111 68h14M107 81h20" fill="none" stroke="#121212" stroke-width="5" stroke-linecap="round"/>
  <text x="160" y="78" font-family="Inter, Arial, sans-serif" font-size="50" font-weight="900" fill="#121212">Tonmoy</text>
  <text x="160" y="120" font-family="Inter, Arial, sans-serif" font-size="46" font-weight="900" fill="#E53935">Eats</text>
  <path d="M309 112h126" fill="none" stroke="#FF7043" stroke-width="7" stroke-linecap="round"/>
  <path d="M447 112h32" fill="none" stroke="#FFC107" stroke-width="7" stroke-linecap="round"/>
</svg>
